<svg viewBox="0 0 1200 600" fill="none" xmlns="http://www.w3.org/2000/svg">
<path d="M40 0L40 600" stroke="#F4F4F4" stroke-width="1.5"/>
<path d="M160 0L160 600" stroke="#F4F4F4" stroke-width="1.5"/>
<path d="M120 0L120 600" stroke="#F4F4F4" stroke-width="1.5"/>
<path d="M80 0L80 600" stroke="#F4F4F4" stroke-width="1.5"/>
<path d="M200 0L200 600" stroke="#F4F4F4" stroke-width="1.5"/>
<path d="M320 0L320 600" stroke="#F4F4F4" stroke-width="1.5"/>
<path d="M280 0L280 600" stroke="#F4F4F4" stroke-width="1.5"/>
<path d="M240 0L240 600" stroke="#F4F4F4" stroke-width="1.5"/>
<path d="M360 0L360 600" stroke="#F4F4F4" stroke-width="1.5"/>
<path d="M480 0L480 600" stroke="#F4F4F4" stroke-width="1.5"/>
<path d="M440 0L440 600" stroke="#F4F4F4" stroke-width="1.5"/>
<path d="M400 0L400 600" stroke="#F4F4F4" stroke-width="1.5"/>
<path d="M520 0L520 600" stroke="#F4F4F4" stroke-width="1.5"/>
<path d="M640 0L640 600" stroke="#F4F4F4" stroke-width="1.5"/>
<path d="M600 0L600 600" stroke="#F4F4F4" stroke-width="1.5"/>
<path d="M560 0L560 600" stroke="#F4F4F4" stroke-width="1.5"/>
<path d="M680 0L680 600" stroke="#F4F4F4" stroke-width="1.5"/>
<path d="M800 0L800 600" stroke="#F4F4F4" stroke-width="1.5"/>
<path d="M760 0L760 600" stroke="#F4F4F4" stroke-width="1.5"/>
<path d="M720 0L720 600" stroke="#F4F4F4" stroke-width="1.5"/>
<path d="M840 0L840 600" stroke="#F4F4F4" stroke-width="1.5"/>
<path d="M960 0L960 600" stroke="#F4F4F4" stroke-width="1.5"/>
<path d="M920 0L920 600" stroke="#F4F4F4" stroke-width="1.5"/>
<path d="M880 0L880 600" stroke="#F4F4F4" stroke-width="1.5"/>
<path d="M1000 0L1000 600" stroke="#F4F4F4" stroke-width="1.5"/>
<path d="M1040 0V600" stroke="#F4F4F4" stroke-width="1.5"/>
<path d="M1160 0L1160 600" stroke="#F4F4F4" stroke-width="1.5"/>
<path d="M1120 0V600" stroke="#F4F4F4" stroke-width="1.5"/>
<path d="M1080 0V600" stroke="#F4F4F4" stroke-width="1.5"/>
<line y1="39.25" x2="1200" y2="39.25" stroke="#F4F4F4" stroke-width="1.5"/>
<line y1="80.25" x2="1200" y2="80.25" stroke="#F4F4F4" stroke-width="1.5"/>
<line y1="119.25" x2="1200" y2="119.25" stroke="#F4F4F4" stroke-width="1.5"/>
<line y1="519.25" x2="1200" y2="519.25" stroke="#F4F4F4" stroke-width="1.5"/>
<line y1="560.25" x2="1200" y2="560.25" stroke="#F4F4F4" stroke-width="1.5"/>
<line y1="398.25" x2="1200" y2="398.25" stroke="#F4F4F4" stroke-width="1.5"/>
<line y1="439.25" x2="1200" y2="439.25" stroke="#F4F4F4" stroke-width="1.5"/>
<line y1="478.25" x2="1200" y2="478.25" stroke="#F4F4F4" stroke-width="1.5"/>
<line y1="279.25" x2="1200" y2="279.25" stroke="#F4F4F4" stroke-width="1.5"/>
<line y1="320.25" x2="1200" y2="320.25" stroke="#F4F4F4" stroke-width="1.5"/>
<line y1="359.25" x2="1200" y2="359.25" stroke="#F4F4F4" stroke-width="1.5"/>
<line y1="160.25" x2="1200" y2="160.25" stroke="#F4F4F4" stroke-width="1.5"/>
<line y1="201.25" x2="1200" y2="201.25" stroke="#F4F4F4" stroke-width="1.5"/>
<line y1="240.25" x2="1200" y2="240.25" stroke="#F4F4F4" stroke-width="1.5"/>
<rect width="1200" height="600" fill="url(#paint0_radial_16_2029)"/>
<defs>
<radialGradient id="paint0_radial_16_2029" cx="0" cy="0" r="1" gradientUnits="userSpaceOnUse" gradientTransform="translate(600 -38) rotate(88.9662) scale(332.554 665.108)">
<stop stop-color="white" stop-opacity="0"/>
<stop offset="1" stop-color="white"/>
</radialGradient>
</defs>
</svg>
