<svg viewBox="0 0 154 54" fill="none" xmlns="http://www.w3.org/2000/svg">
<mask id="path-1-inside-1_2_13" fill="white">
<path fill-rule="evenodd" clip-rule="evenodd" d="M49 40.7342V40.8965V41.0588C48.913 47.9215 43.3325 53.4545 36.4595 53.4545C30.8552 53.4545 26.1046 49.7698 24.5 44.688C22.8954 49.7698 18.1487 53.4545 12.5405 53.4545C5.66752 53.4545 0.0869495 47.9215 0 41.0588V40.8965V40.7342C0.0336563 35.5178 1.69281 30.6881 4.49565 26.7273C1.69281 22.7664 0.0336655 17.9367 8.72974e-06 12.7203L8.71557e-06 12.558L8.7014e-06 12.3958C0.0869576 5.53297 5.66753 -1.14441e-05 12.5405 -1.14441e-05C18.1448 -1.14441e-05 22.8954 3.68469 24.5 8.76648C26.1046 3.68469 30.8513 -1.52588e-05 36.4595 -1.52588e-05C43.3325 -1.52588e-05 48.9131 5.53297 49 12.3958V12.558V12.7203C48.9663 17.9367 47.3072 22.7664 44.5044 26.7273C47.3072 30.6881 48.9663 35.5178 49 40.7342Z"/>
</mask>
<path d="M49 40.7342L55.2133 40.6941L55.2134 40.7142V40.7342H49ZM49 41.0588H55.2134V41.0981L55.2129 41.1375L49 41.0588ZM24.5 44.688L18.575 42.8172L24.5 24.0526L30.425 42.8172L24.5 44.688ZM0 41.0588L-6.2129 41.1375L-6.21339 41.0981V41.0588H0ZM0 40.7342H-6.21339V40.7142L-6.21326 40.6941L0 40.7342ZM4.49565 26.7273L9.5676 23.1382L12.1074 26.7273L9.5676 30.3163L4.49565 26.7273ZM8.72974e-06 12.7203L-6.21326 12.7604L-6.21338 12.7404L-6.21338 12.7203L8.72974e-06 12.7203ZM8.71557e-06 12.558L-6.21338 12.558L8.71557e-06 12.558ZM8.7014e-06 12.3958L-6.21338 12.3958L-6.21338 12.3564L-6.21289 12.317L8.7014e-06 12.3958ZM24.5 8.76648L30.425 10.6374L24.5 29.4019L18.575 10.6374L24.5 8.76648ZM49 12.3958L55.2129 12.317L55.2134 12.3564V12.3958H49ZM49 12.7203H55.2134V12.7403L55.2133 12.7604L49 12.7203ZM44.5044 26.7273L39.4324 30.3164L36.8926 26.7273L39.4324 23.1382L44.5044 26.7273ZM42.7866 40.8965V40.7342H55.2134V40.8965H42.7866ZM42.7866 41.0588V40.8965H55.2134V41.0588H42.7866ZM36.4595 47.2411C39.92 47.2411 42.7431 44.4539 42.7871 40.98L55.2129 41.1375C55.083 51.3892 46.745 59.6679 36.4595 59.6679V47.2411ZM30.425 42.8172C31.238 45.3917 33.6468 47.2411 36.4595 47.2411V59.6679C28.0636 59.6679 20.9712 54.1479 18.575 46.5589L30.425 42.8172ZM12.5405 47.2411C15.356 47.2411 17.7617 45.3929 18.575 42.8172L30.425 46.5589C28.0291 54.1468 20.9415 59.6679 12.5405 59.6679V47.2411ZM6.2129 40.98C6.25691 44.4539 9.08002 47.2411 12.5405 47.2411V59.6679C2.25502 59.6679 -6.08301 51.3892 -6.2129 41.1375L6.2129 40.98ZM6.21339 40.8965V41.0588H-6.21339V40.8965H6.21339ZM6.21339 40.7342V40.8965H-6.21339V40.7342H6.21339ZM9.5676 30.3163C7.4759 33.2722 6.23845 36.8701 6.21326 40.7743L-6.21326 40.6941C-6.17114 34.1656 -4.09029 28.104 -0.576302 23.1382L9.5676 30.3163ZM6.21327 12.6802C6.23846 16.5844 7.47591 20.1823 9.5676 23.1382L-0.576305 30.3163C-4.09028 25.3505 -6.17113 19.2889 -6.21326 12.7604L6.21327 12.6802ZM6.2134 12.558L6.2134 12.7203L-6.21338 12.7203L-6.21338 12.558L6.2134 12.558ZM6.2134 12.3958L6.2134 12.558L-6.21338 12.558L-6.21338 12.3958L6.2134 12.3958ZM12.5405 6.21338C9.08003 6.21338 6.25692 9.00062 6.2129 12.4745L-6.21289 12.317C-6.083 2.06532 2.25502 -6.21341 12.5405 -6.21341V6.21338ZM18.575 10.6374C17.762 8.06278 15.3532 6.21338 12.5405 6.21338V-6.21341C20.9364 -6.21341 28.0288 -0.693396 30.425 6.89561L18.575 10.6374ZM36.4595 6.21338C33.644 6.21338 31.2383 8.06166 30.425 10.6374L18.575 6.89561C20.9709 -0.692271 28.0585 -6.21341 36.4595 -6.21341V6.21338ZM42.7871 12.4745C42.7431 9.00062 39.92 6.21338 36.4595 6.21338V-6.21341C46.745 -6.21341 55.083 2.06531 55.2129 12.317L42.7871 12.4745ZM42.7866 12.558V12.3958H55.2134V12.558H42.7866ZM42.7866 12.7203V12.558H55.2134V12.7203H42.7866ZM39.4324 23.1382C41.5241 20.1823 42.7615 16.5844 42.7867 12.6802L55.2133 12.7604C55.1711 19.2889 53.0903 25.3505 49.5763 30.3164L39.4324 23.1382ZM42.7867 40.7743C42.7615 36.8701 41.5241 33.2722 39.4324 30.3164L49.5763 23.1382C53.0903 28.104 55.1711 34.1656 55.2133 40.6941L42.7867 40.7743Z" fill="black" mask="url(#path-1-inside-1_2_13)"/>
<path d="M57.3945 47V7.00001H71.6523C74.7643 7.00001 77.3424 7.56642 79.3867 8.69923C81.431 9.83204 82.9609 11.3815 83.9766 13.3477C84.9922 15.3008 85.5 17.5013 85.5 19.9492C85.5 22.4102 84.9857 24.6237 83.957 26.5899C82.9414 28.543 81.4049 30.0925 79.3477 31.2383C77.3034 32.3711 74.7318 32.9375 71.6328 32.9375H61.8281V27.8203H71.0859C73.0521 27.8203 74.6471 27.4818 75.8711 26.8047C77.0951 26.1146 77.9935 25.1771 78.5664 23.9922C79.1393 22.8073 79.4258 21.4596 79.4258 19.9492C79.4258 18.4388 79.1393 17.0977 78.5664 15.9258C77.9935 14.7539 77.0885 13.836 75.8516 13.1719C74.6276 12.5078 73.013 12.1758 71.0078 12.1758H63.4297V47H57.3945ZM95.0684 47.6641C93.1673 47.6641 91.4486 47.3125 89.9121 46.6094C88.3757 45.8932 87.1582 44.8581 86.2598 43.5039C85.3743 42.1498 84.9316 40.4896 84.9316 38.5235C84.9316 36.8307 85.2572 35.4375 85.9082 34.3438C86.5592 33.25 87.4382 32.3841 88.5449 31.7461C89.6517 31.1081 90.8887 30.6263 92.2559 30.3008C93.623 29.9753 95.0163 29.7279 96.4355 29.5586C98.2324 29.3503 99.6908 29.181 100.811 29.0508C101.93 28.9076 102.744 28.6797 103.252 28.3672C103.76 28.0547 104.014 27.5469 104.014 26.8438V26.707C104.014 25.0013 103.532 23.6797 102.568 22.7422C101.618 21.8047 100.199 21.336 98.3105 21.336C96.3444 21.336 94.7949 21.7721 93.6621 22.6445C92.5423 23.5039 91.7676 24.461 91.3379 25.5156L85.8496 24.2656C86.5007 22.4427 87.4512 20.9714 88.7012 19.8516C89.9642 18.7188 91.416 17.8985 93.0566 17.3906C94.6973 16.8698 96.4225 16.6094 98.2324 16.6094C99.4303 16.6094 100.7 16.7526 102.041 17.0391C103.395 17.3125 104.658 17.8203 105.83 18.5625C107.015 19.3047 107.985 20.3659 108.74 21.7461C109.495 23.1133 109.873 24.8906 109.873 27.0781V47H104.17V42.8985H103.936C103.558 43.6537 102.992 44.3958 102.236 45.125C101.481 45.8542 100.511 46.4597 99.3262 46.9414C98.1413 47.4232 96.722 47.6641 95.0684 47.6641ZM96.3379 42.9766C97.9525 42.9766 99.3327 42.6576 100.479 42.0195C101.637 41.3815 102.516 40.5482 103.115 39.5195C103.727 38.4779 104.033 37.3646 104.033 36.1797V32.3125C103.825 32.5208 103.421 32.7162 102.822 32.8985C102.236 33.0677 101.566 33.2175 100.811 33.3477C100.055 33.4649 99.3197 33.5755 98.6035 33.6797C97.8874 33.7708 97.2884 33.849 96.8066 33.9141C95.6738 34.0573 94.6387 34.2982 93.7012 34.6367C92.7767 34.9753 92.0345 35.4636 91.4746 36.1016C90.9277 36.7266 90.6543 37.5599 90.6543 38.6016C90.6543 40.0469 91.1882 41.1406 92.2559 41.8828C93.3236 42.612 94.6842 42.9766 96.3379 42.9766ZM112.151 47V17H117.796V21.7656H118.108C118.655 20.1511 119.619 18.8815 120.999 17.957C122.392 17.0195 123.968 16.5508 125.726 16.5508C126.09 16.5508 126.52 16.5638 127.015 16.5899C127.522 16.6159 127.92 16.6485 128.206 16.6875V22.2735C127.972 22.2083 127.555 22.1367 126.956 22.0586C126.357 21.9675 125.758 21.9219 125.159 21.9219C123.779 21.9219 122.549 22.2149 121.468 22.8008C120.4 23.3737 119.554 24.1745 118.929 25.2031C118.304 26.2188 117.991 27.3776 117.991 28.6797V47H112.151ZM139.322 47.6055C136.419 47.6055 133.919 46.9479 131.822 45.6328C129.739 44.3047 128.137 42.4753 127.018 40.1445C125.898 37.8138 125.338 35.1445 125.338 32.1367C125.338 29.0899 125.911 26.4011 127.057 24.0703C128.202 21.7266 129.817 19.8971 131.9 18.582C133.984 17.2669 136.438 16.6094 139.264 16.6094C141.542 16.6094 143.574 17.0326 145.357 17.8789C147.141 18.7123 148.58 19.8841 149.674 21.3945C150.781 22.905 151.438 24.6693 151.646 26.6875H145.963C145.65 25.2813 144.934 24.0703 143.814 23.0547C142.708 22.0391 141.223 21.5313 139.361 21.5313C137.734 21.5313 136.308 21.961 135.084 22.8203C133.873 23.6667 132.929 24.8776 132.252 26.4531C131.575 28.0156 131.236 29.8646 131.236 32C131.236 34.1875 131.568 36.0755 132.232 37.6641C132.896 39.2526 133.834 40.4831 135.045 41.3555C136.269 42.2279 137.708 42.6641 139.361 42.6641C140.468 42.6641 141.471 42.4623 142.369 42.0586C143.281 41.6419 144.042 41.0495 144.654 40.2813C145.279 39.513 145.715 38.5886 145.963 37.5078H151.646C151.438 39.4479 150.807 41.1797 149.752 42.7031C148.697 44.2266 147.285 45.4245 145.514 46.2969C143.756 47.1693 141.692 47.6055 139.322 47.6055Z" fill="black"/>
</svg>
